<svg width="16" height="16" viewBox="0 0 16 16" fill="none" xmlns="http://www.w3.org/2000/svg">
<g clip-path="url(#clip0_2048_943)">
<path d="M11.88 0.906655H7.61333C7.00889 0.906655 6.45778 1.04888 5.96 1.33332C5.46222 1.61777 5.06222 2.01777 4.76 2.53332C4.45778 3.04888 4.30667 3.60888 4.30667 4.21332H3.34667C2.70667 4.21332 2.15556 4.44443 1.69333 4.90666C1.23111 5.36888 1 5.91999 1 6.55999V7.99999C1 8.14221 1.04444 8.25777 1.13333 8.34666C1.22222 8.43554 1.33778 8.47999 1.48 8.47999H8.09333C8.23556 8.47999 8.35111 8.43554 8.44 8.34666C8.52889 8.25777 8.57333 8.14221 8.57333 7.99999V6.55999C8.57333 5.91999 8.34222 5.36888 7.88 4.90666C7.41778 4.44443 6.86667 4.21332 6.22667 4.21332H5.26667C5.26667 3.57332 5.49778 3.02221 5.96 2.55999C6.42222 2.09777 6.97333 1.84888 7.61333 1.81332H11.88C12.52 1.84888 13.0711 2.09777 13.5333 2.55999C13.9956 3.02221 14.2444 3.57332 14.28 4.21332V14.6133H15.1867V4.21332C15.1867 3.60888 15.0444 3.04888 14.76 2.53332C14.4756 2.01777 14.0756 1.61777 13.56 1.33332C13.0444 1.04888 12.4844 0.906655 11.88 0.906655ZM6.17333 5.17332C6.56444 5.17332 6.90222 5.30666 7.18667 5.57332C7.47111 5.83999 7.61333 6.16888 7.61333 6.55999V7.51999H1.90667V6.55999C1.90667 6.16888 2.04889 5.83999 2.33333 5.57332C2.61778 5.30666 2.95556 5.17332 3.34667 5.17332H6.17333ZM1.48 9.91999H2.38667V13.2267H1.48V9.91999ZM3.34667 9.91999H4.30667V11.3067H3.34667V9.91999ZM3.34667 12.7467H4.30667V14.6133H3.34667V12.7467ZM5.26667 9.91999H6.17333V12.2667H5.26667V9.91999ZM5.26667 13.2267H6.17333V14.1333H5.26667V13.2267ZM7.13333 9.91999H8.09333V11.3067H7.13333V9.91999ZM7.13333 12.2667H8.09333V15.0933H7.13333V12.2667Z" fill="#181A20"/>
</g>
<defs>
<clipPath id="clip0_2048_943">
<rect width="16" height="16" fill="white" transform="matrix(1 0 0 -1 0 16)"/>
</clipPath>
</defs>
</svg>
