<svg width="16" height="16" viewBox="0 0 16 16" fill="none" xmlns="http://www.w3.org/2000/svg">
<path d="M14.0559 8.97183L13.961 8.92442V4.79998C13.961 4.23109 13.7556 3.73331 13.3448 3.30664C12.9339 2.87998 12.444 2.66664 11.8751 2.66664H4.28994C3.72105 2.66664 3.23117 2.87998 2.82031 3.30664C2.40944 3.73331 2.20401 4.23109 2.20401 4.79998V8.92442L2.1566 8.97183C1.90376 9.22467 1.77734 9.52491 1.77734 9.87257V13.2385C1.77734 13.3333 1.81685 13.4281 1.89586 13.5229C1.97487 13.6178 2.07759 13.6652 2.20401 13.6652H4.28994C4.44796 13.6652 4.55858 13.602 4.62179 13.4755L5.38031 12.3852H10.8322L11.5433 13.4755C11.6065 13.602 11.7171 13.6652 11.8751 13.6652H14.0085C14.1033 13.6652 14.1902 13.6178 14.2692 13.5229C14.3482 13.4281 14.3877 13.3333 14.3877 13.2385V9.87257C14.3877 9.52491 14.2771 9.22467 14.0559 8.97183ZM4.28994 3.51997H11.8751C12.2228 3.51997 12.523 3.64639 12.7759 3.89923C13.0287 4.15207 13.1551 4.45232 13.1551 4.79998V7.31257C12.9655 7.05973 12.7206 6.8543 12.4203 6.69627C12.1201 6.53825 11.7961 6.47504 11.4485 6.50664H4.7166C4.11611 6.47504 3.62623 6.66467 3.24697 7.07553L3.00994 7.35998V4.79998C3.00994 4.45232 3.13636 4.15207 3.3892 3.89923C3.64204 3.64639 3.94228 3.51997 4.28994 3.51997ZM12.7285 8.59257H3.4366C3.4366 8.24491 3.56302 7.94467 3.81586 7.69183C4.0687 7.43899 4.36895 7.31257 4.7166 7.31257H11.4485C11.7961 7.31257 12.0964 7.43899 12.3492 7.69183C12.602 7.94467 12.7285 8.24491 12.7285 8.59257ZM13.5818 12.8118H12.1122L11.401 11.7215C11.3062 11.595 11.1798 11.5318 11.0218 11.5318H5.14327C4.98524 11.5318 4.85883 11.595 4.76401 11.7215L4.0529 12.8118H2.58327V9.87257C2.58327 9.74615 2.63068 9.64343 2.72549 9.56442C2.82031 9.48541 2.91512 9.4459 3.00994 9.4459H13.1551C13.2499 9.4459 13.3448 9.48541 13.4396 9.56442C13.5344 9.64343 13.5818 9.74615 13.5818 9.87257V12.8118Z" fill="#181A20"/>
</svg>
