<svg width="24" height="24" viewBox="0 0 24 24" fill="none" xmlns="http://www.w3.org/2000/svg">
<path d="M13.1445 19.1966L13.1299 19.2161C13.1299 19.2161 12.7373 19.6667 12 19.6667C11.3672 19.6667 10.9649 19.3372 10.8652 19.2096C10.7598 19.069 10.6348 19 10.5 19C10.3652 19 10.2402 19.0703 10.1475 19.1966C10.0527 19.3229 10 19.4896 10 19.6667C10 19.8438 10.0527 20.013 10.1475 20.1367C10.2129 20.2266 10.8272 21 12 21C13.1728 21 13.7871 20.2266 13.8525 20.1367C13.9473 20.0104 14 19.8438 14 19.6628C14 19.4831 13.9473 19.3164 13.8525 19.1927C13.6748 18.9557 13.3223 18.9557 13.1455 19.1927L13.1445 19.1966Z" fill="black"/>
<path d="M19.9807 13.9646C20.0733 13.243 19.8304 12.5344 19.3098 12.0197L17.7252 10.4528C17.7156 10.4373 17.7012 10.3945 17.694 10.3244L17.4944 7.15246V7.13463C17.2732 4.29803 14.9889 2.09161 12.1814 2H12.0119C9.1493 2 6.73407 4.20651 6.51524 7.02537V7.0432L6.30604 10.3268C6.30003 10.3993 6.282 10.4421 6.27238 10.4576L4.69019 12.0221C4.16961 12.5369 3.92674 13.2454 4.01932 13.9671C4.1696 15.1262 5.18914 16 6.3926 16H17.6147C18.8181 16 19.8365 15.1262 19.9879 13.9671L19.9807 13.9646ZM5.23483 13.8089C5.19155 13.4617 5.30576 13.1241 5.55464 12.878L7.14646 11.304C7.36528 11.0876 7.49992 10.7678 7.52759 10.4087L7.73679 7.11328C7.90871 4.90084 9.77104 3.21491 12.006 3.21491H12.1359C14.3144 3.28505 16.0915 5.01006 16.2632 7.22619L16.4628 10.41C16.4905 10.769 16.6263 11.0852 16.838 11.2992L18.4358 12.8792C18.6846 13.1253 18.8025 13.4641 18.7556 13.8101C18.6847 14.3641 18.1893 14.7814 17.605 14.7814L6.38541 14.7802C5.80112 14.7802 5.30457 14.3629 5.23483 13.8089Z" fill="black"/>
</svg>
