<svg width="16" height="16" viewBox="0 0 16 16" fill="none" xmlns="http://www.w3.org/2000/svg">
<path d="M11.6258 5.34211L7.75799 1.47427C7.58656 1.30285 7.28298 1.30285 7.11155 1.47427L3.73792 4.84835C3.55936 5.02691 3.55936 5.31619 3.73792 5.4948L7.60535 9.36223C7.82323 9.58051 8.11338 9.70061 8.42144 9.70106C8.72992 9.70061 9.02012 9.58051 9.23754 9.36269L11.6259 6.9743C12.0758 6.52424 12.0758 5.79208 11.6258 5.34211ZM7.43479 2.44387L8.82432 3.83341L6.0971 6.56109L4.70757 5.17155L7.43479 2.44387ZM10.9794 6.32781L8.59059 8.71665C8.50039 8.80593 8.34327 8.80726 8.25221 8.71619L6.78437 7.24835L9.51159 4.52067L10.9794 5.98851C11.0727 6.08227 11.0727 6.23405 10.9794 6.32781Z" fill="#717378"/>
<path d="M14.4125 10.9453H10.3013C10.0486 10.9453 9.84415 11.1498 9.84415 11.4025C9.84415 12.6694 9.09906 13.74 8.21691 13.74C7.33389 13.74 6.58788 12.6694 6.58788 11.4025C6.58788 11.1498 6.3834 10.9453 6.13074 10.9453H1.58751C1.33485 10.9453 1.13037 11.1498 1.13037 11.4025C1.13037 11.6551 1.33485 11.8596 1.58751 11.8596H5.7018C5.87656 13.4363 6.93641 14.6542 8.217 14.6542C9.49682 14.6542 10.5558 13.4363 10.7304 11.8596H14.4125C14.6652 11.8596 14.8697 11.6551 14.8697 11.4025C14.8697 11.1498 14.6652 10.9453 14.4125 10.9453Z" fill="#717378"/>
<path d="M13.661 7.12503C14.0302 7.12503 14.3307 6.82459 14.3307 6.42011C14.3307 6.05092 14.0302 5.75049 13.6477 5.75049C13.2785 5.75049 12.978 6.05092 12.978 6.4554C12.978 6.82459 13.2785 7.12503 13.6477 7.12503H13.661ZM13.4351 6.42016C13.4351 6.30317 13.5307 6.20768 13.661 6.20768C13.778 6.20768 13.8735 6.30322 13.8735 6.45545C13.8735 6.57243 13.7779 6.66793 13.661 6.66793H13.6476C13.5307 6.66788 13.4351 6.57239 13.4351 6.42016Z" fill="#717378"/>
<path d="M4.45044 9.30745C4.45044 9.67664 4.75087 9.97708 5.12006 9.97708H5.13391C5.5031 9.97708 5.80354 9.67664 5.80354 9.27216C5.80354 8.90297 5.5031 8.60254 5.12006 8.60254C4.75087 8.60254 4.45044 8.90297 4.45044 9.30745ZM5.34639 9.30745C5.34639 9.42265 5.24907 9.51993 5.13391 9.51993H5.12006C5.00308 9.51993 4.90758 9.42439 4.90758 9.27216C4.90758 9.15518 5.00313 9.05968 5.13391 9.05968C5.24907 9.05968 5.34639 9.15701 5.34639 9.30745Z" fill="#717378"/>
<path d="M10.0728 9.76598C10.0728 10.1356 10.3732 10.4361 10.7424 10.4361H10.7558C11.1254 10.4361 11.4259 10.1356 11.4259 9.73115C11.4259 9.36196 11.1254 9.06152 10.7424 9.06152C10.3732 9.06152 10.0728 9.36196 10.0728 9.76598ZM10.9687 9.76598C10.9687 9.88338 10.8732 9.97892 10.7558 9.97892H10.7424C10.6254 9.97892 10.5299 9.88337 10.5299 9.73115C10.5299 9.61416 10.6254 9.51867 10.7558 9.51867C10.8732 9.51867 10.9687 9.61421 10.9687 9.76598Z" fill="#717378"/>
<path d="M12.53 8.70296C12.53 9.07215 12.8305 9.37258 13.1997 9.37258H13.2135C13.5827 9.37258 13.8831 9.07215 13.8831 8.66767C13.8831 8.29848 13.5827 7.99805 13.1997 7.99805C12.8305 7.99805 12.53 8.29853 12.53 8.70296ZM13.2135 8.45519C13.3287 8.45519 13.426 8.55252 13.426 8.70296C13.426 8.81994 13.3304 8.91544 13.2135 8.91544H13.1997C13.0827 8.91544 12.9872 8.8199 12.9872 8.66767C12.9872 8.55252 13.0845 8.45519 13.2135 8.45519Z" fill="#717378"/>
<path d="M7.53931 11.6043C7.53931 11.9735 7.83974 12.274 8.20893 12.274H8.22278C8.59197 12.274 8.8924 11.9735 8.8924 11.569C8.8924 11.1998 8.59197 10.8994 8.20893 10.8994C7.83974 10.8994 7.53931 11.1998 7.53931 11.6043ZM8.43526 11.6043C8.43526 11.7213 8.33972 11.8168 8.22278 11.8168H8.20893C8.09373 11.8168 7.99645 11.7195 7.99645 11.569C7.99645 11.4521 8.09199 11.3566 8.22278 11.3566C8.33976 11.3566 8.43526 11.4521 8.43526 11.6043Z" fill="#717378"/>
</svg>
