<svg width="16" height="16" viewBox="0 0 16 16" fill="none" xmlns="http://www.w3.org/2000/svg">
<g clip-path="url(#clip0_2038_2245)">
<g clip-path="url(#clip1_2038_2245)">
<mask id="path-1-inside-1_2038_2245" fill="white">
<path d="M3.9332 14.5367C3.85829 14.5298 3.78873 14.496 3.7382 14.4418C3.68767 14.3877 3.65983 14.3171 3.66016 14.244V2.2441C3.66017 2.16648 3.69191 2.09204 3.74841 2.03715C3.80491 1.98227 3.88154 1.95142 3.96145 1.95142H12.6988C12.7787 1.95142 12.8554 1.98227 12.9119 2.03715C12.9684 2.09204 13.0001 2.16648 13.0001 2.2441V14.244C13.0002 14.2973 12.9853 14.3495 12.9571 14.3951C12.9288 14.4408 12.8883 14.4781 12.8399 14.503C12.7915 14.5279 12.737 14.5396 12.6823 14.5366C12.6275 14.5337 12.5747 14.5163 12.5294 14.4864L8.33014 11.6739L4.13092 14.4864C4.07306 14.525 4.00313 14.5428 3.9332 14.5367ZM4.56399 13.1344L8.16063 10.6626C8.21061 10.6296 8.26965 10.612 8.3301 10.612C8.39055 10.612 8.4496 10.6296 8.49958 10.6626L12.0962 13.1344V3.07973H4.56399V13.1344Z"/>
</mask>
<path d="M3.9332 14.5367C3.85829 14.5298 3.78873 14.496 3.7382 14.4418C3.68767 14.3877 3.65983 14.3171 3.66016 14.244V2.2441C3.66017 2.16648 3.69191 2.09204 3.74841 2.03715C3.80491 1.98227 3.88154 1.95142 3.96145 1.95142H12.6988C12.7787 1.95142 12.8554 1.98227 12.9119 2.03715C12.9684 2.09204 13.0001 2.16648 13.0001 2.2441V14.244C13.0002 14.2973 12.9853 14.3495 12.9571 14.3951C12.9288 14.4408 12.8883 14.4781 12.8399 14.503C12.7915 14.5279 12.737 14.5396 12.6823 14.5366C12.6275 14.5337 12.5747 14.5163 12.5294 14.4864L8.33014 11.6739L4.13092 14.4864C4.07306 14.525 4.00313 14.5428 3.9332 14.5367ZM4.56399 13.1344L8.16063 10.6626C8.21061 10.6296 8.26965 10.612 8.3301 10.612C8.39055 10.612 8.4496 10.6296 8.49958 10.6626L12.0962 13.1344V3.07973H4.56399V13.1344Z" fill="#464646"/>
<path d="M3.9332 14.5367L3.38616 20.5117L3.39816 20.5128L3.41016 20.5139L3.9332 14.5367ZM3.66016 14.244L9.6601 14.2707L9.66016 14.2573V14.244H3.66016ZM3.66016 2.2441L-2.33984 2.24348V2.2441H3.66016ZM3.96145 1.95142V-4.04858H3.96087L3.96145 1.95142ZM12.6988 1.95142L12.6994 -4.04858H12.6988V1.95142ZM13.0001 2.2441H19.0001V2.24348L13.0001 2.2441ZM13.0001 14.244H7.00012L7.00013 14.2509L13.0001 14.244ZM12.5294 14.4864L9.19048 19.4716L9.20626 19.4821L9.22211 19.4926L12.5294 14.4864ZM8.33014 11.6739L11.669 6.68875L8.33014 4.45249L4.99126 6.68875L8.33014 11.6739ZM4.13092 14.4864L7.46287 19.4762L7.4698 19.4716L4.13092 14.4864ZM4.56399 13.1344H-1.43601V24.538L7.96226 18.0792L4.56399 13.1344ZM8.16063 10.6626L4.85278 5.65683L4.80729 5.68689L4.76235 5.71777L8.16063 10.6626ZM8.3301 10.612V4.61196V10.612ZM8.49958 10.6626L11.8978 5.71777L11.8529 5.68689L11.8074 5.65683L8.49958 10.6626ZM12.0962 13.1344L8.69794 18.0792L18.0962 24.538V13.1344H12.0962ZM12.0962 3.07973H18.0962V-2.92027H12.0962V3.07973ZM4.56399 3.07973V-2.92027H-1.43601V3.07973H4.56399ZM3.9332 14.5367L4.48024 8.56169C5.8478 8.6869 7.15333 9.30689 8.12547 10.3489L3.7382 14.4418L-0.649069 18.5347C0.424128 19.6851 1.86878 20.3728 3.38616 20.5117L3.9332 14.5367ZM3.7382 14.4418L8.12547 10.3489C9.10211 11.3958 9.66666 12.7927 9.6601 14.2707L3.66016 14.244L-2.33978 14.2174C-2.34699 15.8415 -1.72676 17.3795 -0.649069 18.5347L3.7382 14.4418ZM3.66016 14.244H9.66016V2.2441H3.66016H-2.33984V14.244H3.66016ZM3.66016 2.2441L9.66016 2.24471C9.66 3.81532 9.016 5.28501 7.92913 6.34083L3.74841 2.03715L-0.432301 -2.26652C-1.63217 -1.10093 -2.33966 0.517627 -2.33984 2.24348L3.66016 2.2441ZM3.74841 2.03715L7.92913 6.34083C6.84826 7.39082 5.41826 7.95127 3.96203 7.95142L3.96145 1.95142L3.96087 -4.04858C2.34483 -4.04843 0.761571 -3.42628 -0.432301 -2.26652L3.74841 2.03715ZM3.96145 1.95142V7.95142H12.6988V1.95142V-4.04858H3.96145V1.95142ZM12.6988 1.95142L12.6982 7.95142C11.242 7.95127 9.81203 7.39082 8.73115 6.34083L12.9119 2.03715L17.0926 -2.26652C15.8987 -3.42629 14.3154 -4.04843 12.6994 -4.04858L12.6988 1.95142ZM12.9119 2.03715L8.73115 6.34083C7.6443 5.28503 7.00028 3.81535 7.00012 2.24471L13.0001 2.2441L19.0001 2.24348C18.9999 0.5176 18.2924 -1.10095 17.0926 -2.26652L12.9119 2.03715ZM13.0001 2.2441H7.00012V14.244H13.0001H19.0001V2.2441H13.0001ZM13.0001 14.244L7.00013 14.2509C6.99889 13.1772 7.29986 12.1351 7.85467 11.2383L12.9571 14.3951L18.0595 17.552C18.6707 16.564 19.0015 15.4174 19.0001 14.2371L13.0001 14.244ZM12.9571 14.3951L7.85467 11.2383C8.40807 10.3438 9.188 9.63465 10.0935 9.16847L12.8399 14.503L15.5863 19.8375C16.5887 19.3215 17.4496 18.5377 18.0595 17.552L12.9571 14.3951ZM12.8399 14.503L10.0935 9.16847C10.9969 8.70337 12.0014 8.49171 13.0023 8.54518L12.6823 14.5366L12.3622 20.5281C13.4725 20.5874 14.5861 20.3525 15.5863 19.8375L12.8399 14.503ZM12.6823 14.5366L13.0023 8.54518C14.0038 8.59867 14.9837 8.91672 15.8366 9.48019L12.5294 14.4864L9.22211 19.4926C10.1657 20.116 11.2513 20.4687 12.3622 20.5281L12.6823 14.5366ZM12.5294 14.4864L15.8682 9.50123L11.669 6.68875L8.33014 11.6739L4.99126 16.6591L9.19048 19.4716L12.5294 14.4864ZM8.33014 11.6739L4.99126 6.68875L0.792044 9.50123L4.13092 14.4864L7.4698 19.4716L11.669 16.6591L8.33014 11.6739ZM4.13092 14.4864L0.798981 9.49659C1.88774 8.76958 3.17994 8.44786 4.45625 8.55954L3.9332 14.5367L3.41016 20.5139C4.82632 20.6378 6.25839 20.2805 7.46287 19.4762L4.13092 14.4864ZM4.56399 13.1344L7.96226 18.0792L11.5589 15.6075L8.16063 10.6626L4.76235 5.71777L1.16571 8.1895L4.56399 13.1344ZM8.16063 10.6626L11.4685 15.6685C10.5278 16.29 9.43467 16.612 8.3301 16.612V10.612V4.61196C7.10464 4.61196 5.8934 4.96919 4.85278 5.65683L8.16063 10.6626ZM8.3301 10.612V16.612C7.22554 16.612 6.1324 16.2901 5.19173 15.6685L8.49958 10.6626L11.8074 5.65683C10.7668 4.96918 9.55555 4.61196 8.3301 4.61196V10.612ZM8.49958 10.6626L5.1013 15.6075L8.69794 18.0792L12.0962 13.1344L15.4945 8.1895L11.8978 5.71777L8.49958 10.6626ZM12.0962 13.1344H18.0962V3.07973H12.0962H6.09622V13.1344H12.0962ZM12.0962 3.07973V-2.92027H4.56399V3.07973V9.07973H12.0962V3.07973ZM4.56399 3.07973H-1.43601V13.1344H4.56399H10.564V3.07973H4.56399Z" fill="black" mask="url(#path-1-inside-1_2038_2245)"/>
</g>
</g>
<defs>
<clipPath id="clip0_2038_2245">
<rect width="16" height="16" fill="white" transform="matrix(1 0 0 -1 0 16)"/>
</clipPath>
<clipPath id="clip1_2038_2245">
<rect width="14" height="15" fill="white" transform="translate(0 1)"/>
</clipPath>
</defs>
</svg>
