<svg width="24" height="24" viewBox="0 0 24 24" fill="none" xmlns="http://www.w3.org/2000/svg">
<path d="M15.648 13.1423C15.2735 12.7214 14.6706 12.7214 14.2961 13.1423L13.7347 13.797C12.6118 13.2364 12.0293 12.0905 11.8213 11.623L12.3827 10.9921C12.7573 10.5712 12.7573 9.89368 12.3827 9.47276L11.3428 8.30405C11.1559 8.09405 10.9268 8 10.6774 8C10.4279 8 10.1785 8.11687 10.012 8.30405L9.59598 8.77154C9.26286 9.16871 9.03457 9.65994 9.01344 10.1977C8.95088 11.109 9.05488 12.9096 10.4694 14.6388L10.7602 14.9894C12.195 16.6722 13.7135 17 14.6707 17C14.7958 17 14.9201 17 15.0241 16.9763C15.5026 16.9297 15.96 16.696 16.3135 16.3216L16.7294 15.8541C16.9163 15.6441 17 15.3866 17 15.1063C17 14.826 16.896 14.5457 16.7294 14.3585L15.648 13.1423Z" fill="black"/>
<path d="M12.5803 4.00027C10.3216 4.00027 8.22148 4.86525 6.62416 6.45833C3.88591 9.18924 3.36085 13.3541 5.32367 16.676L4 21L8.10738 19.5208C11.4161 21.5921 15.775 21.1138 18.5353 18.3375C20.1327 16.7445 21 14.651 21 12.3973C21 10.1447 20.1327 8.05018 18.5353 6.45714C16.9389 4.86411 14.8389 4 12.5801 4L12.5803 4.00027ZM17.8973 17.7001C15.364 20.2267 11.394 20.6133 8.42753 18.6336L8.2448 18.4967L5.41573 19.5208L6.32848 16.5391L6.21439 16.3568C4.34343 13.3751 4.77662 9.57482 7.26442 7.09469C8.679 5.6839 10.5731 4.90959 12.5814 4.90959C14.5897 4.90959 16.4839 5.68299 17.8984 7.09469C19.313 8.50548 20.0894 10.3945 20.0894 12.3974C20.0876 14.4003 19.3119 16.2894 17.8973 17.7001Z" fill="black"/>
</svg>
