<svg width="24" height="24" viewBox="0 0 24 24" fill="none" xmlns="http://www.w3.org/2000/svg">
<path d="M12.8051 14.0661C12.9417 13.9297 13.101 13.8615 13.2831 13.8615C13.4653 13.8615 13.6246 13.9297 13.7612 14.0661L15.5367 15.8395C15.6733 15.9759 15.7416 16.135 15.7416 16.3169C15.7416 16.4988 15.6733 16.6579 15.5367 16.7943L14.7173 17.6128C14.5807 17.7492 14.5124 17.897 14.5124 18.0561C14.5124 18.2153 14.5693 18.3517 14.6831 18.4654C14.7969 18.579 14.9449 18.6359 15.127 18.6359C15.3091 18.6359 15.4457 18.5904 15.5367 18.4995L16.4245 17.6128C16.5156 17.4764 16.6635 17.4082 16.8684 17.4082C17.0733 17.4082 17.244 17.4764 17.3806 17.6128L17.9269 18.2267C18.109 18.4085 18.348 18.5108 18.644 18.5336C18.9399 18.5563 19.1903 18.454 19.3952 18.2267C19.6 17.9993 19.6911 17.7378 19.6683 17.4423C19.6456 17.1467 19.3496 17.1467 19.122 16.9648C18.9854 16.8284 18.9285 16.6693 18.9513 16.4874C18.974 16.3055 19.0537 16.1464 19.1903 16.01C19.3269 15.8736 19.4862 15.8167 19.6683 15.8395C19.8504 15.8622 20.0098 15.9418 20.1464 16.0782C20.6016 16.5329 21 16.8284 21 17.4423C21 18.0561 20.7837 18.6132 20.3512 19.1133C19.9187 19.6135 19.361 19.8636 18.6781 19.8636C17.9952 19.8636 17.4261 19.6362 16.9708 19.1815L16.9026 19.0451L16.4928 19.4544C16.1286 19.8181 15.6733 20 15.127 20C14.5807 20 14.114 19.8067 13.727 19.4203C13.3401 19.0338 13.1466 18.579 13.1466 18.0561C13.1466 17.5332 13.3514 17.0672 13.7612 16.6579L14.1026 16.3169L13.2831 15.4984C11.568 17.0973 11.5636 15.3061 12.8051 14.0661ZM18.2991 15.3961C18.4357 15.2597 18.504 15.1006 18.504 14.9187C18.504 14.7368 18.4357 14.5776 18.2991 14.4412L13.4161 10.0999C13.7348 9.23595 13.8145 8.34928 13.6552 7.43987C13.4958 6.53046 13.1316 5.72336 12.5625 5.01856C11.9934 4.31377 11.2764 3.77949 10.4113 3.41573C9.54633 3.05197 8.66993 2.92692 7.78215 3.0406C6.89437 3.15427 6.07488 3.4612 5.32368 3.96138C4.57248 4.46155 3.99201 5.13224 3.58227 5.97344C3.17252 6.81465 2.97903 7.68995 3.0018 8.59936C3.02456 9.50877 3.27496 10.35 3.75299 11.123C4.23103 11.896 4.86841 12.5098 5.66514 12.9645C6.46186 13.4192 7.3155 13.658 8.22604 13.6807C9.13658 13.7034 9.99022 13.5102 10.7869 13.1009C11.5837 12.6917 12.2552 12.1233 12.8015 11.3958L17.3431 15.3961C17.4797 15.5325 17.639 15.6007 17.8211 15.6007C18.0032 15.6007 18.1626 15.5325 18.2991 15.3961ZM8.36262 12.2825C7.63418 12.2825 6.96266 12.112 6.34804 11.7709C5.73343 11.4299 5.24401 10.9411 4.87979 10.3045C4.51557 9.66792 4.33347 8.98586 4.33347 8.25833C4.33347 7.53081 4.51557 6.86012 4.87979 6.24627C5.24401 5.63242 5.73343 5.15498 6.34804 4.81395C6.96266 4.47292 7.63419 4.3024 8.36262 4.3024C9.09105 4.3024 9.76258 4.47292 10.3772 4.81395C10.9918 5.15498 11.4812 5.63242 11.8454 6.24627C12.2097 6.86012 12.3918 7.53081 12.3918 8.25834C12.3918 8.98586 12.2097 9.66792 11.8454 10.3045C11.4812 10.9411 10.9918 11.4299 10.3772 11.7709C9.76258 12.112 9.09105 12.2825 8.36262 12.2825Z" fill="#181A20"/>
</svg>
