<svg width="16" height="16" viewBox="0 0 16 16" fill="none" xmlns="http://www.w3.org/2000/svg">
<path d="M11 4.39V10.21C11 10.31 10.965 10.4 10.895 10.48C10.825 10.56 10.735 10.6 10.625 10.6C10.515 10.6 10.42 10.56 10.34 10.48C10.26 10.4 10.22 10.31 10.22 10.21V5.32L2.66 12.88C2.58 12.96 2.485 13 2.375 13C2.265 13 2.175 12.965 2.105 12.895C2.035 12.825 2 12.735 2 12.625C2 12.515 2.04 12.42 2.12 12.34L9.68 4.78H4.79C4.69 4.78 4.6 4.74 4.52 4.66C4.44 4.58 4.4 4.485 4.4 4.375C4.4 4.265 4.44 4.175 4.52 4.105C4.6 4.035 4.69 4 4.79 4H10.61C10.73 4 10.825 4.035 10.895 4.105C10.965 4.175 11 4.27 11 4.39Z" fill="#181A20"/>
</svg>
