<svg width="132" height="50" viewBox="0 0 132 50" fill="none" xmlns="http://www.w3.org/2000/svg">
<path d="M0 50V7.14282L13.7481 24.4462C16.1501 27.4692 17.4565 31.2085 17.4565 35.0602V50H0Z" fill="#FAAF3F"/>
<path d="M23.8042 27.9174V42.8571H18.6466C18.6466 42.8571 18.6861 40.2823 18.6466 37.3016C18.6151 34.9276 18.5596 32.379 18.1648 30.9524C17.2863 27.7778 15.8694 25 13.0922 21.8254C9.52157 17.3033 6.34766 13.2653 6.34766 13.2653V0L20.0958 17.3033C22.4977 20.3264 23.8042 24.0657 23.8042 27.9174Z" fill="black"/>
<path d="M132.001 28.801L127.412 38.3543H123.316L118.728 28.801H123.119L124.832 33.0754C124.951 33.3643 125.036 33.6795 125.088 34.0209C125.141 34.3623 125.193 34.684 125.246 34.9861H125.502C125.555 34.684 125.607 34.3623 125.66 34.0209C125.725 33.6663 125.811 33.3446 125.916 33.0557L127.609 28.801H132.001ZM127.511 35.9315V42.3923H123.237V35.9315H127.511Z" fill="black"/>
<path d="M114.926 28.801V42.3923H110.652V28.801H114.926ZM118.727 28.801V31.992H106.852V28.801H118.727Z" fill="black"/>
<path d="M100.237 28.6042C101.576 28.6042 102.666 28.729 103.506 28.9785C104.346 29.228 104.963 29.6548 105.357 30.2588C105.764 30.8498 105.968 31.6771 105.968 32.7407C105.968 33.2791 105.882 33.7847 105.712 34.2574C105.554 34.7171 105.272 35.0979 104.865 35.3999C104.471 35.7019 103.92 35.8923 103.211 35.9711V36.0893C103.46 36.1156 103.736 36.1944 104.038 36.3257C104.34 36.4439 104.622 36.654 104.885 36.956C105.147 37.2449 105.331 37.6651 105.436 38.2167L106.499 42.3925H102.029L101.143 38.3545C101.064 37.9737 100.939 37.7242 100.769 37.606C100.611 37.4878 100.349 37.4288 99.9809 37.4288C98.9962 37.4156 98.1888 37.4091 97.5586 37.4091C96.9416 37.4091 96.4164 37.4025 95.9832 37.3894C95.5499 37.3762 95.1167 37.3565 94.6834 37.3303L94.7425 34.415H100.138C100.545 34.415 100.861 34.3756 101.084 34.2968C101.307 34.2181 101.458 34.0802 101.537 33.8832C101.629 33.6731 101.675 33.3842 101.675 33.0165C101.675 32.6357 101.629 32.3468 101.537 32.1498C101.458 31.9528 101.307 31.8149 101.084 31.7362C100.861 31.6574 100.545 31.618 100.138 31.618C98.7731 31.618 97.6243 31.6245 96.6921 31.6377C95.76 31.6508 95.1232 31.6771 94.7819 31.7165L94.4668 28.8012C95.0707 28.7356 95.6353 28.6896 96.1604 28.6633C96.6987 28.6371 97.2829 28.6239 97.9131 28.6239C98.5564 28.6108 99.331 28.6042 100.237 28.6042ZM98.6615 28.8012V42.3925H94.4668V28.8012H98.6615Z" fill="black"/>
<path d="M85.827 28.7225C86.6148 28.7225 87.4222 28.7291 88.2493 28.7422C89.0895 28.7422 89.9101 28.7619 90.711 28.8013C91.5118 28.8276 92.2405 28.8867 92.8969 28.9786L92.7 31.9923H87.7176C87.4681 31.9923 87.2712 32.058 87.1268 32.1893C86.9824 32.3206 86.9102 32.4913 86.9102 32.7014V38.4925C86.9102 38.7026 86.9824 38.8733 87.1268 39.0047C87.2712 39.136 87.4681 39.2016 87.7176 39.2016H92.7L92.8969 42.2154C92.2405 42.2941 91.5118 42.3532 90.711 42.3926C89.9101 42.432 89.0895 42.4517 88.2493 42.4517C87.4222 42.4649 86.6148 42.4714 85.827 42.4714C84.8949 42.4714 84.1268 42.1891 83.5229 41.6244C82.9321 41.0466 82.6367 40.2981 82.6367 39.3789V31.815C82.6367 30.8958 82.9321 30.1539 83.5229 29.5892C84.1268 29.0114 84.8949 28.7225 85.827 28.7225ZM82.9912 34.0212H91.991V36.8576H82.9912V34.0212Z" fill="black"/>
<path d="M75.7543 28.6042C77.1985 28.6042 78.3276 28.7421 79.1416 29.0179C79.9556 29.2805 80.5332 29.7467 80.8746 30.4164C81.2159 31.0861 81.3866 32.0251 81.3866 33.2332C81.3866 34.4282 81.2225 35.3605 80.8943 36.0302C80.5792 36.6868 80.054 37.153 79.3188 37.4288C78.5836 37.6914 77.5924 37.8227 76.3451 37.8227C75.6887 37.8227 75.0323 37.7899 74.3758 37.7242C73.7194 37.6454 73.1023 37.5535 72.5246 37.4485C71.9601 37.3303 71.4743 37.2121 71.0673 37.0939C70.6603 36.9626 70.3781 36.8444 70.2205 36.7393L70.2796 34.809C71.133 34.809 72.0192 34.809 72.9382 34.809C73.8572 34.809 74.7631 34.809 75.6559 34.809C76.0497 34.809 76.3517 34.7696 76.5618 34.6908C76.7718 34.5989 76.9162 34.4413 76.995 34.2181C77.0738 33.9817 77.1132 33.6534 77.1132 33.2332C77.1132 32.7998 77.0738 32.465 76.995 32.2286C76.9162 31.9922 76.7718 31.8346 76.5618 31.7559C76.3517 31.6639 76.0497 31.618 75.6559 31.618C74.3167 31.618 73.1745 31.6245 72.2292 31.6377C71.284 31.6508 70.6407 31.6771 70.2993 31.7165L70.0039 28.8012C70.6078 28.7356 71.1724 28.6896 71.6975 28.6633C72.2358 28.6371 72.82 28.6239 73.4502 28.6239C74.0804 28.6108 74.8484 28.6042 75.7543 28.6042ZM74.2773 28.8012V42.3925H70.0039V28.8012H74.2773Z" fill="black"/>
<path d="M62.0071 28.5255C63.1755 28.5255 64.1602 28.6371 64.9611 28.8604C65.7751 29.0705 66.4315 29.4382 66.9304 29.9634C67.4293 30.4887 67.7903 31.2109 68.0135 32.1302C68.2367 33.0363 68.3483 34.1918 68.3483 35.5969C68.3483 36.9889 68.2367 38.1445 68.0135 39.0637C67.7903 39.9829 67.4293 40.7052 66.9304 41.2304C66.4315 41.7557 65.7751 42.13 64.9611 42.3532C64.1602 42.5633 63.1755 42.6684 62.0071 42.6684C60.8517 42.6684 59.8671 42.5633 59.0531 42.3532C58.2522 42.13 57.6024 41.7557 57.1035 41.2304C56.6046 40.7052 56.2435 39.9829 56.0203 39.0637C55.7971 38.1445 55.6855 36.9889 55.6855 35.5969C55.6855 34.1918 55.7971 33.0363 56.0203 32.1302C56.2435 31.2109 56.6046 30.4887 57.1035 29.9634C57.6024 29.4382 58.2522 29.0705 59.0531 28.8604C59.8671 28.6371 60.8517 28.5255 62.0071 28.5255ZM62.0071 31.6968C61.5213 31.6968 61.1471 31.8019 60.8846 32.012C60.622 32.2221 60.4382 32.6095 60.3332 33.1741C60.2281 33.7388 60.1756 34.5464 60.1756 35.5969C60.1756 36.6475 60.2281 37.4551 60.3332 38.0197C60.4382 38.5844 60.622 38.9718 60.8846 39.1819C61.1471 39.392 61.5213 39.4971 62.0071 39.4971C62.4928 39.4971 62.867 39.392 63.1296 39.1819C63.3922 38.9718 63.576 38.5844 63.681 38.0197C63.786 37.4551 63.8386 36.6475 63.8386 35.5969C63.8386 34.5464 63.786 33.7388 63.681 33.1741C63.576 32.6095 63.3922 32.2221 63.1296 32.012C62.867 31.8019 62.4928 31.6968 62.0071 31.6968Z" fill="black"/>
<path d="M48.6383 28.6042C49.9774 28.6042 51.0671 28.729 51.9074 28.9785C52.7476 29.228 53.3647 29.6548 53.7585 30.2588C54.1655 30.8498 54.369 31.6771 54.369 32.7407C54.369 33.2791 54.2837 33.7847 54.113 34.2574C53.9555 34.7171 53.6732 35.0979 53.2662 35.3999C52.8723 35.7019 52.3209 35.8923 51.612 35.9711V36.0893C51.8614 36.1156 52.1371 36.1944 52.4391 36.3257C52.741 36.4439 53.0233 36.654 53.2859 36.956C53.5485 37.2449 53.7323 37.6651 53.8373 38.2167L54.9007 42.3925H50.4304L49.5442 38.3545C49.4654 37.9737 49.3407 37.7242 49.17 37.606C49.0125 37.4878 48.7499 37.4288 48.3823 37.4288C47.3976 37.4156 46.5902 37.4091 45.96 37.4091C45.3429 37.4091 44.8178 37.4025 44.3845 37.3894C43.9513 37.3762 43.518 37.3565 43.0848 37.3303L43.1439 34.415H48.5398C48.9468 34.415 49.2619 34.3756 49.4851 34.2968C49.7083 34.2181 49.8593 34.0802 49.938 33.8832C50.0299 33.6731 50.0759 33.3842 50.0759 33.0165C50.0759 32.6357 50.0299 32.3468 49.938 32.1498C49.8593 31.9528 49.7083 31.8149 49.4851 31.7362C49.2619 31.6574 48.9468 31.618 48.5398 31.618C47.1744 31.618 46.0256 31.6245 45.0935 31.6377C44.1614 31.6508 43.5246 31.6771 43.1833 31.7165L42.8682 28.8012C43.4721 28.7356 44.0366 28.6896 44.5618 28.6633C45.1001 28.6371 45.6843 28.6239 46.3145 28.6239C46.9578 28.6108 47.7324 28.6042 48.6383 28.6042ZM47.0628 28.8012V42.3925H42.8682V28.8012H47.0628Z" fill="black"/>
<path d="M35.8871 28.6041C37.3313 28.6041 38.4604 28.742 39.2744 29.0178C40.0884 29.2804 40.666 29.7466 41.0074 30.4163C41.3487 31.086 41.5194 32.0249 41.5194 33.2331C41.5194 34.428 41.3553 35.3604 41.0271 36.0301C40.712 36.6867 40.1868 37.1529 39.4516 37.4286C38.7164 37.6913 37.7252 37.8226 36.4779 37.8226C35.8215 37.8226 35.1651 37.7898 34.5086 37.7241C33.8522 37.6453 33.2351 37.5534 32.6575 37.4483C32.0929 37.3301 31.6071 37.212 31.2002 37.0938C30.7932 36.9625 30.5109 36.8443 30.3533 36.7392L30.4124 34.8089C31.2658 34.8089 32.152 34.8089 33.071 34.8089C33.99 34.8089 34.8959 34.8089 35.7887 34.8089C36.1825 34.8089 36.4845 34.7695 36.6946 34.6907C36.9046 34.5987 37.049 34.4412 37.1278 34.2179C37.2066 33.9816 37.246 33.6533 37.246 33.2331C37.246 32.7997 37.2066 32.4648 37.1278 32.2285C37.049 31.9921 36.9046 31.8345 36.6946 31.7557C36.4845 31.6638 36.1825 31.6179 35.7887 31.6179C34.4495 31.6179 33.3073 31.6244 32.3621 31.6375C31.4168 31.6507 30.7735 31.6769 30.4321 31.7163L30.1367 28.8011C30.7406 28.7354 31.3052 28.6895 31.8303 28.6632C32.3686 28.637 32.9529 28.6238 33.583 28.6238C34.2132 28.6107 34.9813 28.6041 35.8871 28.6041ZM34.4102 28.8011V42.3924H30.1367V28.8011H34.4102Z" fill="black"/>
<path d="M74.5772 12.1011V25.6924H70.3037V12.1011H74.5772ZM78.378 12.1011V15.2921H66.5029V12.1011H78.378Z" fill="black"/>
<path d="M60.4698 11.8254C61.1788 11.8254 61.9731 11.8714 62.8527 11.9633C63.7455 12.0421 64.5989 12.226 65.4128 12.5149L65.1568 15.2528C64.566 15.2397 63.8308 15.2331 62.9512 15.2331C62.0847 15.22 61.2247 15.2134 60.3714 15.2134C60.1219 15.2134 59.9119 15.22 59.7412 15.2331C59.5836 15.2462 59.4589 15.2725 59.367 15.3119C59.2751 15.3513 59.2095 15.4038 59.1701 15.4695C59.1307 15.5351 59.111 15.6205 59.111 15.7256C59.111 15.9094 59.1898 16.067 59.3473 16.1983C59.518 16.3165 59.8331 16.4675 60.2926 16.6513L62.7543 17.6756C63.8833 18.1615 64.6711 18.7261 65.1174 19.3696C65.577 19.9999 65.8067 20.8141 65.8067 21.8121C65.8067 22.5737 65.7148 23.2238 65.531 23.7622C65.3472 24.2874 65.0387 24.7142 64.6054 25.0425C64.1853 25.3577 63.6208 25.5875 62.9118 25.7319C62.2028 25.8895 61.3166 25.9683 60.2532 25.9683C59.7937 25.9683 59.0979 25.9289 58.1657 25.8501C57.2336 25.7844 56.1767 25.6006 54.9951 25.2986L55.2511 22.3045C56.0389 22.3177 56.7609 22.3374 57.4174 22.3636C58.0738 22.3768 58.6384 22.3899 59.111 22.403C59.5968 22.403 59.9578 22.403 60.1941 22.403C60.5617 22.403 60.8374 22.3899 61.0212 22.3636C61.2182 22.3374 61.3495 22.2914 61.4151 22.2257C61.4939 22.147 61.5333 22.0485 61.5333 21.9303C61.5333 21.799 61.507 21.6939 61.4545 21.6151C61.402 21.5232 61.3101 21.4378 61.1788 21.3591C61.0475 21.2803 60.8571 21.1949 60.6077 21.103L57.9097 19.9211C56.8069 19.4221 56.0257 18.864 55.5662 18.2468C55.1067 17.6297 54.877 16.8221 54.877 15.824C54.877 15.0493 54.9754 14.4058 55.1724 13.8937C55.3824 13.3815 55.7041 12.9745 56.1373 12.6724C56.5706 12.3704 57.1417 12.1537 57.8506 12.0224C58.5727 11.8911 59.4458 11.8254 60.4698 11.8254Z" fill="black"/>
<path d="M49.5083 12.1011C49.8496 12.1011 50.1516 12.1996 50.4142 12.3965C50.6768 12.5935 50.854 12.8627 50.9459 13.2041L54.471 25.6924H50.1188L48.0707 16.8482C48.0182 16.5987 47.9722 16.3426 47.9328 16.08C47.8934 15.8042 47.8606 15.5416 47.8344 15.2921H47.3026C47.2764 15.5416 47.2436 15.8042 47.2042 16.08C47.1648 16.3426 47.1188 16.5987 47.0663 16.8482L45.0182 25.6924H40.666L44.1911 13.2041C44.283 12.8627 44.4602 12.5935 44.7228 12.3965C44.9854 12.1996 45.2874 12.1011 45.6287 12.1011H49.5083ZM51.1822 19.7634V22.7575H43.9548V19.7634H51.1822Z" fill="black"/>
<path d="M33.2284 12.0225C34.0161 12.0225 34.8235 12.029 35.6507 12.0422C36.4909 12.0422 37.3115 12.0619 38.1123 12.1013C38.9132 12.1275 39.6418 12.1866 40.2983 12.2785L40.1013 15.2923H35.1189C34.8695 15.2923 34.6726 15.3579 34.5281 15.4892C34.3837 15.6205 34.3115 15.7913 34.3115 16.0014V21.7924C34.3115 22.0026 34.3837 22.1733 34.5281 22.3046C34.6726 22.4359 34.8695 22.5016 35.1189 22.5016H40.1013L40.2983 25.5153C39.6418 25.5941 38.9132 25.6532 38.1123 25.6926C37.3115 25.732 36.4909 25.7517 35.6507 25.7517C34.8235 25.7648 34.0161 25.7714 33.2284 25.7714C32.2962 25.7714 31.5282 25.489 30.9243 24.9244C30.3335 24.3466 30.0381 23.5981 30.0381 22.6788V15.115C30.0381 14.1958 30.3335 13.4538 30.9243 12.8892C31.5282 12.3114 32.2962 12.0225 33.2284 12.0225ZM30.3926 17.3211H39.3924V20.1575H30.3926V17.3211Z" fill="black"/>
</svg>
