<svg width="16" height="16" viewBox="0 0 16 16" fill="none" xmlns="http://www.w3.org/2000/svg">
<path d="M6.65333 0.999978H9.53333V1.90664H6.65333V0.999978ZM14.28 13.8C14.28 13.9066 14.2267 14.0133 14.12 14.12C14.0133 14.2266 13.9067 14.28 13.8 14.28H11.88V15.1866H13.8C14.1911 15.1866 14.52 15.0533 14.7867 14.7866C15.0533 14.52 15.1867 14.1911 15.1867 13.8V11.88H14.28V13.8ZM13.8 0.999978H11.88V1.90664H13.8C13.9067 1.90664 14.0133 1.95998 14.12 2.06665C14.2267 2.17331 14.28 2.27998 14.28 2.38665V4.30665H15.1867V2.38665C15.1867 1.99553 15.0533 1.66665 14.7867 1.39998C14.52 1.13331 14.1911 0.999978 13.8 0.999978ZM1.90667 2.38665C1.90667 2.27998 1.96 2.17331 2.06667 2.06665C2.17333 1.95998 2.28 1.90664 2.38667 1.90664H4.30667V0.999978H2.38667C1.99556 0.999978 1.66667 1.13331 1.4 1.39998C1.13333 1.66665 1 1.99553 1 2.38665V4.30665H1.90667V2.38665ZM14.28 6.65331H15.1867V9.53331H14.28V6.65331ZM11.88 7.61331V4.78664C11.88 4.64442 11.8356 4.52887 11.7467 4.43998C11.6578 4.35109 11.5422 4.30665 11.4 4.30665H8.57333V5.26665H10.28L7.77333 7.77331C7.56 7.66665 7.34667 7.61331 7.13333 7.61331H2.38667C2.24444 7.61331 2.08444 7.64887 1.90667 7.71998V6.65331H1V13.8C1 14.1911 1.13333 14.52 1.4 14.7866C1.66667 15.0533 1.99556 15.1866 2.38667 15.1866H9.53333V14.28H8.46667C8.53778 14.1022 8.57333 13.9422 8.57333 13.8V9.05331C8.57333 8.83998 8.52 8.62665 8.41333 8.41331L10.92 5.90664V7.61331H11.88ZM2.38667 14.28C2.28 14.28 2.17333 14.2266 2.06667 14.12C1.96 14.0133 1.90667 13.9066 1.90667 13.8V9.05331C1.90667 8.91109 1.96 8.79553 2.06667 8.70665C2.17333 8.61776 2.28 8.57331 2.38667 8.57331H7.13333C7.27556 8.57331 7.39111 8.61776 7.48 8.70665C7.56889 8.79553 7.61333 8.91109 7.61333 9.05331V13.8C7.61333 13.9066 7.56889 14.0133 7.48 14.12C7.39111 14.2266 7.27556 14.28 7.13333 14.28H2.38667Z" fill="#181A20"/>
</svg>
