<svg width="24" height="24" viewBox="0 0 24 24" fill="none" xmlns="http://www.w3.org/2000/svg">
<path d="M20.4216 15.9286L14.1383 7.28571L14.9951 4.64286C15.1379 4.2619 15.0784 3.89286 14.8166 3.53571C14.5548 3.17857 14.2097 3 13.7813 3H9.21157C8.78316 3 8.43806 3.17857 8.17625 3.53571C7.91444 3.89286 7.85494 4.2619 7.99775 4.64286L8.92597 7.28571L2.57121 15.9286C2.1904 16.4524 2 17.0714 2 17.7857V18.8571C2 19.7143 2.30941 20.4524 2.92822 21.0714C3.54704 21.6905 4.28486 22 5.14168 22H17.8512C18.708 22 19.4458 21.6905 20.0646 21.0714C20.6835 20.4524 20.9929 19.7143 20.9929 18.8571V17.7857C21.0405 17.0714 20.8501 16.4524 20.4216 15.9286ZM13.7813 4.21428L12.9245 6.78571H10.0684L9.21157 4.21428H13.7813ZM19.7076 18.8571C19.7076 19.381 19.5291 19.8333 19.1721 20.2143C18.8151 20.5952 18.3748 20.7857 17.8512 20.7857H5.14168C4.61806 20.7857 4.16585 20.5952 3.78504 20.2143C3.40423 19.8333 3.21383 19.381 3.21383 18.8571V17.7857C3.26143 17.3571 3.40423 16.9762 3.64224 16.6429L9.92559 8.07143H13.0673L19.3506 16.6429C19.6362 16.9762 19.779 17.3571 19.779 17.7857L19.7076 18.8571ZM13.4243 14.0714H10.2112V13H13.7813V11.7857H12.139V10.8571H10.8538V11.7143H9.56858C9.37818 11.7619 9.22347 11.8452 9.10447 11.9643C8.98547 12.0833 8.92597 12.2143 8.92597 12.3571V14.6429C8.92597 14.8333 8.98547 14.9881 9.10447 15.1071C9.22347 15.2262 9.37818 15.2857 9.56858 15.2857H12.7817V16.3571H9.21157V17.5714H10.8538V18.5H12.139V17.5714H13.4243C13.5671 17.5714 13.7099 17.5119 13.8527 17.3929C13.9955 17.2738 14.0669 18.119 14.0669 17.9286V15.6429C14.0669 15.5 13.9955 14.369 13.8527 14.25C13.7099 14.131 13.5671 14.0714 13.4243 14.0714Z" fill="#181A20"/>
</svg>
