<svg width="24" height="24" viewBox="0 0 24 24" fill="none" xmlns="http://www.w3.org/2000/svg">
<path d="M14.9004 19.0215V20.0215H8.90039V19.0215H14.9004ZM15.9004 18.0215V6.02148C15.9004 5.4692 15.4527 5.02148 14.9004 5.02148H8.90039C8.34811 5.02148 7.90039 5.4692 7.90039 6.02148V18.0215C7.90039 18.5738 8.34811 19.0215 8.90039 19.0215V20.0215L8.69629 20.0107C7.68761 19.9085 6.90039 19.0571 6.90039 18.0215V6.02148C6.90039 4.91691 7.79582 4.02148 8.90039 4.02148H14.9004C16.005 4.02148 16.9004 4.91691 16.9004 6.02148V18.0215C16.9004 19.0571 16.1132 19.9085 15.1045 20.0107L14.9004 20.0215V19.0215C15.4527 19.0215 15.9004 18.5738 15.9004 18.0215Z" fill="#181A20"/>
<path d="M13.5 6C13.7761 6 14 6.22386 14 6.5C14 6.77614 13.7761 7 13.5 7H10.5C10.2239 7 10 6.77614 10 6.5C10 6.22386 10.2239 6 10.5 6H13.5Z" fill="black"/>
</svg>
