<svg width="24" height="24" viewBox="0 0 24 24" fill="none" xmlns="http://www.w3.org/2000/svg">
<path d="M20.8373 20.9517L16.5355 16.5865C17.4633 15.49 18.0643 14.2458 18.3385 12.8541C18.6126 11.4623 18.5388 10.0811 18.117 8.71037C17.6953 7.33968 16.9467 6.16932 15.8712 5.1993C14.7958 4.22927 13.5621 3.57556 12.1704 3.23816C10.7786 2.90076 9.39737 2.92185 8.02668 3.30142C6.65599 3.681 5.45401 4.38743 4.42072 5.42072C3.38743 6.454 2.681 7.65599 2.30143 9.02668C1.92185 10.3974 1.90076 11.7786 2.23816 13.1704C2.57556 14.5621 3.22928 15.7958 4.1993 16.8712C5.16932 17.9467 6.33968 18.6953 7.71037 19.117C9.08105 19.5388 10.4623 19.6126 11.8541 19.3385C13.2458 19.0643 14.5111 18.4633 15.6498 17.5355L19.9517 21.8373C20.0782 21.9639 20.2258 22.0166 20.3945 21.9955C20.5632 21.9744 20.7003 21.9111 20.8057 21.8057C20.9111 21.7003 20.9744 21.5632 20.9955 21.3945C21.0166 21.2258 20.9639 21.0782 20.8373 20.9517ZM3.31363 11.2725C3.31363 10.0072 3.62994 8.84743 4.26256 7.79306C4.89519 6.73869 5.73869 5.89519 6.79306 5.26256C7.84744 4.62994 9.00725 4.31362 10.2725 4.31362C11.5377 4.31362 12.6976 4.62994 13.7519 5.26256C14.8063 5.89519 15.6498 6.73869 16.2824 7.79306C16.9151 8.84743 17.2314 10.0072 17.2314 11.2725C17.2314 12.5377 16.9151 13.6976 16.2824 14.7519C15.6498 15.8063 14.8063 16.6498 13.7519 17.2824C12.6976 17.9151 11.5377 18.2314 10.2725 18.2314C9.00725 18.2314 7.84744 17.9151 6.79306 17.2824C5.73869 16.6498 4.89519 15.8063 4.26256 14.7519C3.62994 13.6976 3.31363 12.5377 3.31363 11.2725Z" fill="#181A20"/>
</svg>
