<svg width="24" height="24" viewBox="0 0 24 24" fill="none" xmlns="http://www.w3.org/2000/svg">
<path d="M13 22C12.9012 22 12.8025 21.975 12.7037 21.925L9.66667 20.424C8.23457 19.7236 7.09877 18.6729 6.25926 17.272C5.41975 15.8712 5 14.3452 5 12.6942V5.11444C5 4.91432 5.06173 4.75172 5.18519 4.62664C5.30864 4.50156 5.44444 4.43902 5.59259 4.43902H7.74074C8.62963 4.43902 9.46914 4.18887 10.2593 3.68855L12.6296 2.11257C12.8765 1.96247 13.1235 1.96247 13.3704 2.11257L15.7407 3.68855C16.4815 4.18887 17.2963 4.43902 18.1852 4.43902H20.3333C20.5309 4.38899 20.6914 4.43902 20.8148 4.58912C20.9383 4.73921 21 4.91432 21 5.11444V12.6942C21 14.3452 20.5802 15.8712 19.7407 17.272C18.9012 18.6729 17.7407 19.7236 16.2593 20.424L13.2963 21.925C13.1975 21.975 13.0988 22 13 22ZM6.25926 5.78987V12.6942C6.25926 14.0951 6.62963 15.3834 7.37037 16.5591C8.11111 17.7348 9.07407 18.6229 10.2593 19.2233L13 20.5741L15.7407 19.2233C16.9259 18.6229 17.8889 17.7348 18.6296 16.5591C19.3704 15.3834 19.7407 14.0951 19.7407 12.6942V5.78987H18.2593C17.0741 5.78987 15.9877 5.46466 15 4.81426L13 3.46341L11 4.81426C10.0123 5.46466 8.92593 5.78987 7.74074 5.78987H6.25926Z" fill="#181A20"/>
</svg>
