<svg width="16" height="16" viewBox="0 0 16 16" fill="none" xmlns="http://www.w3.org/2000/svg">
<path fill-rule="evenodd" clip-rule="evenodd" d="M13 13V8.99779C13 8.72287 13.2219 8.5 13.5 8.5C13.7761 8.5 14 8.72242 14 8.99779V13.5022C14 13.7771 13.7781 14 13.5 14C13.4999 14 13.5001 14 13.5 14C13.4999 14 13.4997 14 13.4997 14H2.50035C2.50029 14 2.50041 14 2.50035 14C2.50029 14 2.50006 14 2.5 14C2.36199 14 2.23703 13.9441 2.14656 13.8537C2.05596 13.7639 2 13.639 2 13.5C2 13.5001 2 13.4999 2 13.5C2 13.4999 2 13.4997 2 13.4997V2.50035C2 2.50041 2 2.50029 2 2.50035C2 2.50029 2 2.50006 2 2.5C2 2.22386 2.22242 2 2.49779 2L7.00221 2C7.27713 2 7.5 2.22193 7.5 2.5C7.5 2.77614 7.27758 3 7.00221 3H3V13H13ZM13 3.70711L6.56889 10.1382C6.37315 10.334 6.05754 10.3357 5.86091 10.1391C5.66565 9.94383 5.66626 9.62664 5.86178 9.43111L12.2929 3H10.4985C10.2232 3 10 2.77807 10 2.5C10 2.22386 10.2236 2 10.4985 2H13.5015C13.6389 2 13.7633 2.05529 13.8535 2.14524C13.9442 2.23689 14 2.36132 14 2.49852V5.50148C14 5.77681 13.7781 6 13.5 6C13.2239 6 13 5.77637 13 5.50148V3.70711Z" fill="#464646"/>
</svg>
