<svg width="15" height="15" viewBox="0 0 15 15" fill="none" xmlns="http://www.w3.org/2000/svg">
<path d="M8.70935 1.51092L9.94121 3.99501C10.1092 4.34081 10.5571 4.67249 10.9351 4.736L13.1679 5.11003C14.5957 5.34997 14.9317 6.39442 13.9028 7.42475L12.167 9.1749C11.873 9.4713 11.712 10.0429 11.803 10.4522L12.2999 12.6187C12.6919 14.3336 11.789 14.997 10.2842 14.1007L8.1914 12.8516C7.81344 12.6258 7.19051 12.6258 6.80556 12.8516L4.71279 14.1007C3.21495 14.997 2.30505 14.3266 2.69701 12.6187L3.19395 10.4522C3.28494 10.0429 3.12396 9.4713 2.83 9.1749L1.09419 7.42475C0.0723 6.39442 0.401264 5.34997 1.82911 5.11003L4.06186 4.736C4.43282 4.67249 4.88077 4.34081 5.04875 3.99501L6.28061 1.51092C6.95254 0.163025 8.04442 0.163025 8.70935 1.51092Z" stroke="white" stroke-linecap="round" stroke-linejoin="round"/>
</svg>
