<svg width="16" height="16" viewBox="0 0 16 16" fill="none" xmlns="http://www.w3.org/2000/svg">
<g clip-path="url(#clip0_2001_554)">
<path d="M8 10.1333C7.32444 10.1333 6.70222 9.96444 6.13333 9.62667C5.56444 9.28889 5.11111 8.83556 4.77333 8.26667C4.43556 7.69778 4.26667 7.07556 4.26667 6.4C4.26667 5.72444 4.43556 5.10222 4.77333 4.53333C5.11111 3.96444 5.56444 3.51111 6.13333 3.17333C6.70222 2.83556 7.32444 2.66667 8 2.66667C8.67556 2.66667 9.29778 2.83556 9.86667 3.17333C10.4356 3.51111 10.8889 3.96444 11.2267 4.53333C11.5644 5.10222 11.7333 5.72444 11.7333 6.4C11.7333 7.07556 11.5644 7.69778 11.2267 8.26667C10.8889 8.83556 10.4356 9.28889 9.86667 9.62667C9.29778 9.96444 8.67556 10.1333 8 10.1333ZM8 3.73333C7.25333 3.73333 6.62222 3.99111 6.10667 4.50667C5.59111 5.02222 5.33333 5.65333 5.33333 6.4C5.33333 7.14667 5.59111 7.77778 6.10667 8.29333C6.62222 8.80889 7.25333 9.06667 8 9.06667C8.74667 9.06667 9.37778 8.80889 9.89333 8.29333C10.4089 7.77778 10.6667 7.14667 10.6667 6.4C10.6667 5.65333 10.4089 5.02222 9.89333 4.50667C9.37778 3.99111 8.74667 3.73333 8 3.73333ZM8 0C6.54222 0 5.2 0.355556 3.97333 1.06667C2.74667 1.77778 1.77778 2.74667 1.06667 3.97333C0.355556 5.2 0 6.54222 0 8C0 9.45778 0.355556 10.8 1.06667 12.0267C1.77778 13.2533 2.74667 14.2222 3.97333 14.9333C5.2 15.6444 6.54222 16 8 16C9.45778 16 10.8 15.6444 12.0267 14.9333C13.2533 14.2222 14.2222 13.2533 14.9333 12.0267C15.6444 10.8 16 9.45778 16 8C16 6.54222 15.6444 5.2 14.9333 3.97333C14.2222 2.74667 13.2533 1.77778 12.0267 1.06667C10.8 0.355556 9.45778 0 8 0ZM3.78667 13.4933C4.14222 13.1022 4.56 12.8 5.04 12.5867C5.52 12.3733 6.00889 12.2667 6.50667 12.2667H9.49333C9.99111 12.2667 10.48 12.3733 10.96 12.5867C11.44 12.8 11.8578 13.1022 12.2133 13.4933C11.3956 14.1333 10.4889 14.56 9.49333 14.7733C8.49778 14.9867 7.50222 14.9867 6.50667 14.7733C5.51111 14.56 4.60444 14.1333 3.78667 13.4933ZM13.0133 12.7467C12.5511 12.2489 12.0089 11.8667 11.3867 11.6C10.7644 11.3333 10.1156 11.2 9.44 11.2H6.50667C5.86667 11.2 5.23556 11.3333 4.61333 11.6C3.99111 11.8667 3.44889 12.2489 2.98667 12.7467C2.13333 11.8578 1.56444 10.8267 1.28 9.65333C0.995556 8.48 1.01333 7.30667 1.33333 6.13333C1.65333 4.96 2.25778 3.92889 3.14667 3.04C4.03556 2.15111 5.06667 1.55556 6.24 1.25333C7.41333 0.951111 8.59556 0.951111 9.78667 1.25333C10.9778 1.55556 12.0089 2.15111 12.88 3.04C13.7511 3.92889 14.3556 4.96 14.6933 6.13333C15.0311 7.30667 15.0578 8.48 14.7733 9.65333C14.4889 10.8267 13.9022 11.8578 13.0133 12.7467Z" fill="white"/>
</g>
<defs>
<clipPath id="clip0_2001_554">
<rect width="16" height="16" fill="white" transform="matrix(1 0 0 -1 0 16)"/>
</clipPath>
</defs>
</svg>
