<svg xmlns="http://www.w3.org/2000/svg" version="1.1" xmlns:xlink="http://www.w3.org/1999/xlink" width="1000" height="1000"><g clip-path="url(#SvgjsClipPath1023)"><rect width="1000" height="1000" fill="#ffffff"></rect><g transform="matrix(18,0,0,18,284,50)"><svg xmlns="http://www.w3.org/2000/svg" version="1.1" xmlns:xlink="http://www.w3.org/1999/xlink" width="24" height="50"><svg width="24" height="50" viewBox="0 0 24 50" fill="none" xmlns="http://www.w3.org/2000/svg">
<path d="M0 50V7.14282L13.7481 24.4462C16.1501 27.4692 17.4565 31.2085 17.4565 35.0602V50H0Z" fill="#FAAF3F"></path>
<path d="M23.8042 27.9174V42.8571H18.6466C18.6466 42.8571 18.6861 40.2823 18.6466 37.3016C18.6151 34.9276 18.5596 32.379 18.1648 30.9524C17.2863 27.7778 15.8694 25 13.0922 21.8254C9.52157 17.3033 6.34766 13.2653 6.34766 13.2653V0L20.0958 17.3033C22.4977 20.3264 23.8042 24.0657 23.8042 27.9174Z" fill="black"></path>
</svg></svg></g></g><defs><clipPath id="SvgjsClipPath1023"><rect width="1000" height="1000" x="0" y="0" rx="350" ry="350"></rect></clipPath></defs></svg>